<svg width="40" height="40" viewBox="0 0 40 40" fill="none" xmlns="http://www.w3.org/2000/svg">
<rect width="40" height="40" rx="8" fill="#FEFEFE"/>
<path d="M21.172 10H14C12.9 10 12 10.9 12 12V28C12 29.1 12.9 30 14 30H26C27.1 30 28 29.1 28 28V16.828C28 16.298 27.789 15.789 27.414 15.414L22.586 10.586C22.211 10.211 21.702 10 21.172 10ZM23.923 25.698C23.682 26.266 23.201 26.509 22.64 26.347C22.159 26.185 21.597 25.779 21.036 25.131C20.475 25.212 19.913 25.374 19.352 25.536C18.71 26.671 18.069 27.644 17.427 27.887C17.266 27.968 17.106 28 16.945 28C16.624 28 16.384 27.887 16.223 27.644C16.063 27.401 15.742 26.914 16.383 26.185C16.784 25.698 17.746 25.212 18.789 24.888C19.11 24.239 19.35 23.591 19.591 22.861C19.03 21.807 18.709 20.672 18.789 20.023C18.87 19.373 19.282 19 19.832 19C20.382 19 20.714 19.373 20.875 19.941C21.035 20.59 20.875 21.644 20.474 22.86C20.715 23.347 21.035 23.833 21.356 24.319C22.318 24.238 23.12 24.238 23.602 24.562C24.003 24.806 24.083 25.211 23.923 25.698ZM21 17V11.5L26.5 17H21Z" fill="#F42929"/>
</svg>
