<svg width="64" height="64" viewBox="0 0 64 64" fill="none" xmlns="http://www.w3.org/2000/svg">
<path d="M54.6402 9.35576C42.1605 -3.11859 21.8395 -3.11859 9.35979 9.35576C-3.11993 21.8301 -3.11993 42.1423 9.35979 54.6166C15.5997 60.8538 23.8274 64 32 64C40.1726 64 48.4003 60.8538 54.6402 54.6166C67.1199 42.1423 67.1199 21.8301 54.6402 9.35576ZM52.321 52.2984C41.1113 63.5032 22.8887 63.5032 11.7343 52.2984C0.524591 41.0936 0.524591 22.8788 11.679 11.674C17.3115 6.09918 24.6557 3.28417 32 3.28417C39.3443 3.28417 46.6885 6.09918 52.321 11.674C63.4754 22.8788 63.4754 41.0936 52.321 52.2984Z" fill="black"/>
<path d="M42.4918 30.3301H33.6566V21.4987C33.6566 20.5603 32.9387 19.8428 32 19.8428C31.0612 19.8428 30.3434 20.5603 30.3434 21.4987V30.3301H21.5082C20.5694 30.3301 19.8516 31.0476 19.8516 31.9859C19.8516 32.9243 20.5694 33.6418 21.5082 33.6418H30.3434V42.4732C30.3434 43.4116 31.0612 44.1291 32 44.1291C32.9387 44.1291 33.6566 43.4116 33.6566 42.4732V33.6418H42.4918C43.4305 33.6418 44.1484 32.9243 44.1484 31.9859C44.1484 31.0476 43.4305 30.3301 42.4918 30.3301Z" fill="black"/>
</svg>
