<svg width="31" height="43" viewBox="0 0 31 43" fill="none" xmlns="http://www.w3.org/2000/svg">
<path d="M0 16C0 14.8954 0.895431 14 2 14H20V46H0V16Z" fill="#1238FF"/>
<path d="M28 16C28 24.8366 21.732 32 14 32C6.26801 32 0 24.8366 0 16C0 7.16344 6.26801 0 14 0C21.732 0 28 7.16344 28 16Z" fill="#1238FF"/>
<rect x="6.40039" y="20.9131" width="6.0828" height="0.3" transform="rotate(59.0231 6.40039 20.9131)" fill="#0046C0"/>
<ellipse cx="21" cy="17" rx="2" ry="3" fill="white"/>
<path d="M18 31L20 25.5L19 20.5L21.5 19.5L29.5 36L20 37.5L18 31Z" fill="white"/>
<path d="M21.5 16.9999C21.5 23.6274 18.9708 31.5001 14.0002 31.5001C9.02969 31.5001 2 19.1274 2 12.5C8 14.9999 8.02944 12.9999 13 12.9999C17.9706 12.9999 19 18.4999 21.5 16.9999Z" fill="white"/>
<rect x="8.66016" y="22.3496" width="5.57423" height="0.46628" rx="0.2" transform="rotate(59.0231 8.66016 22.3496)" fill="#1238FF"/>
<path d="M7.5 42L28.5 34L31 39L11 47.5L7.5 42Z" fill="#1BDFEC"/>
</svg>
