<svg width="40" height="40" viewBox="0 0 40 40" fill="none" xmlns="http://www.w3.org/2000/svg">
<circle cx="20" cy="20" r="20" fill="#FFD504"/>
<path d="M30 11.999C29.22 12.462 27.655 13.093 26.735 13.275C26.708 13.282 26.686 13.291 26.66 13.298C25.847 12.496 24.733 11.999 23.5 11.999C21.015 11.999 19 14.014 19 16.499C19 16.63 18.989 16.871 19 16.999C15.647 16.999 13.095 15.243 11.265 12.999C11.066 13.499 10.979 14.289 10.979 15.031C10.979 16.432 12.074 17.808 13.779 18.661C13.465 18.742 13.119 18.8 12.759 18.8C12.178 18.8 11.563 18.647 11 18.183C11 18.2 11 18.216 11 18.234C11 20.192 13.078 21.525 14.926 21.896C14.551 22.117 13.795 22.139 13.426 22.139C13.166 22.139 12.246 22.02 12 21.974C12.514 23.579 14.368 24.481 16.135 24.513C14.753 25.597 13.794 25.999 10.964 25.999H10C11.788 27.145 14.065 28 16.347 28C23.777 28 28 22.337 28 16.999C28 16.913 27.998 16.733 27.995 16.552C27.995 16.534 28 16.517 28 16.499C28 16.472 27.992 16.446 27.992 16.419C27.989 16.283 27.986 16.156 27.983 16.09C28.773 15.52 29.458 14.809 30 13.999C29.275 14.321 28.497 14.537 27.68 14.635C28.514 14.135 29.699 12.943 30 11.999ZM26 16.999C26 21.079 23.043 25.398 17.534 25.942C18.28 25.413 19 24.662 19 24.662C19 24.662 16 22 15.775 18.522C16.81 18.838 17.888 18.999 19 18.999H21V16.499C21.002 15.119 22.12 14 23.5 14C24.881 14 26 15.119 26 16.5C26 16.5 26 16.92 26 16.999Z" fill="black"/>
</svg>
