<svg width="40" height="40" viewBox="0 0 40 40" fill="none" xmlns="http://www.w3.org/2000/svg">
<circle cx="20" cy="20" r="20" fill="#FFD504"/>
<path d="M24 11H16C13.243 11 11 13.243 11 16V24C11 26.757 13.243 29 16 29H24C26.757 29 29 26.757 29 24V16C29 13.243 26.757 11 24 11ZM27 24C27 25.654 25.654 27 24 27H16C14.346 27 13 25.654 13 24V16C13 14.346 14.346 13 16 13H24C25.654 13 27 14.346 27 16V24Z" fill="black"/>
<path d="M20 15C17.243 15 15 17.243 15 20C15 22.757 17.243 25 20 25C22.757 25 25 22.757 25 20C25 17.243 22.757 15 20 15ZM20 23C18.346 23 17 21.654 17 20C17 18.346 18.346 17 20 17C21.654 17 23 18.346 23 20C23 21.654 21.654 23 20 23ZM25 14C24.7348 14 24.4804 14.1054 24.2929 14.2929C24.1054 14.4804 24 14.7348 24 15C24 15.2652 24.1054 15.5196 24.2929 15.7071C24.4804 15.8946 24.7348 16 25 16C25.2652 16 25.5196 15.8946 25.7071 15.7071C25.8946 15.5196 26 15.2652 26 15C26 14.7348 25.8946 14.4804 25.7071 14.2929C25.5196 14.1054 25.2652 14 25 14Z" fill="black"/>
</svg>
