<svg width="40" height="40" viewBox="0 0 40 40" fill="none" xmlns="http://www.w3.org/2000/svg">
<g clip-path="url(#clip0)">
<path d="M24.1655 24.5457L32.422 16.5349C30.707 9.75019 23.8955 5.66062 17.208 7.40061C14.1965 8.18417 11.5808 10.0782 9.87158 12.713C9.99938 12.7097 24.1655 24.5457 24.1655 24.5457Z" fill="#0364B8"/>
<path d="M15.2528 14.2214L15.2525 14.2228C13.6748 13.2314 11.8553 12.7074 9.99958 12.71C9.9567 12.71 9.91457 12.7127 9.87177 12.7132C4.35184 12.7826 -0.0675647 17.3788 0.000782176 22.9791C0.0255579 25.0105 0.651203 26.9876 1.7966 28.654L14.1661 27.0823L23.6496 19.3241L15.2528 14.2214Z" fill="#0078D4"/>
<path d="M32.422 16.5355C32.2405 16.5232 32.0581 16.5147 31.8736 16.5147C30.7659 16.5135 29.6698 16.7431 28.6531 17.189L28.6529 17.1882L23.6494 19.3244L29.1654 26.2371L39.0265 28.6691C41.1545 24.661 39.677 19.6616 35.7264 17.5026C34.7056 16.9447 33.5789 16.615 32.422 16.5355V16.5355H32.422Z" fill="#1490DF"/>
<path d="M1.79639 28.6542C3.66408 31.3785 6.72847 33.0022 9.99941 33.0004H31.8735C34.8616 33.0013 37.6089 31.3377 39.0265 28.6691L23.6494 19.3242L1.79639 28.6542Z" fill="#28A8EA"/>
</g>
<defs>
<clipPath id="clip0">
<rect width="40" height="26" fill="white" transform="translate(0 7)"/>
</clipPath>
</defs>
</svg>
