<svg width="56" height="56" viewBox="0 0 56 56" fill="none" xmlns="http://www.w3.org/2000/svg">
<g filter="url(#filter0_d)">
<circle cx="28" cy="24" r="20" fill="white"/>
<path d="M30 24C30 23.4696 29.7893 22.9609 29.4142 22.5858C29.0391 22.2107 28.5304 22 28 22C27.4696 22 26.9609 22.2107 26.5858 22.5858C26.2107 22.9609 26 23.4696 26 24C26 24.5304 26.2107 25.0391 26.5858 25.4142C26.9609 25.7893 27.4696 26 28 26C28.5304 26 29.0391 25.7893 29.4142 25.4142C29.7893 25.0391 30 24.5304 30 24ZM30 30C30 29.4696 29.7893 28.9609 29.4142 28.5858C29.0391 28.2107 28.5304 28 28 28C27.4696 28 26.9609 28.2107 26.5858 28.5858C26.2107 28.9609 26 29.4696 26 30C26 30.5304 26.2107 31.0391 26.5858 31.4142C26.9609 31.7893 27.4696 32 28 32C28.5304 32 29.0391 31.7893 29.4142 31.4142C29.7893 31.0391 30 30.5304 30 30ZM30 18C30 17.4696 29.7893 16.9609 29.4142 16.5858C29.0391 16.2107 28.5304 16 28 16C27.4696 16 26.9609 16.2107 26.5858 16.5858C26.2107 16.9609 26 17.4696 26 18C26 18.5304 26.2107 19.0391 26.5858 19.4142C26.9609 19.7893 27.4696 20 28 20C28.5304 20 29.0391 19.7893 29.4142 19.4142C29.7893 19.0391 30 18.5304 30 18Z" fill="#A8AAB6"/>
</g>
<defs>
<filter id="filter0_d" x="0" y="0" width="56" height="56" filterUnits="userSpaceOnUse" color-interpolation-filters="sRGB">
<feFlood flood-opacity="0" result="BackgroundImageFix"/>
<feColorMatrix in="SourceAlpha" type="matrix" values="0 0 0 0 0 0 0 0 0 0 0 0 0 0 0 0 0 0 127 0"/>
<feOffset dy="4"/>
<feGaussianBlur stdDeviation="4"/>
<feColorMatrix type="matrix" values="0 0 0 0 0.0592903 0 0 0 0 0.0600983 0 0 0 0 0.0629631 0 0 0 0.12 0"/>
<feBlend mode="normal" in2="BackgroundImageFix" result="effect1_dropShadow"/>
<feBlend mode="normal" in="SourceGraphic" in2="effect1_dropShadow" result="shape"/>
</filter>
</defs>
</svg>
