<svg width="40" height="40" viewBox="0 0 40 40" fill="none" xmlns="http://www.w3.org/2000/svg">
<path d="M35 11.6467L26.1475 6.0459L20 11.0951L29.1883 16.4434L35 11.6467ZM5 21.3726L14.1108 26.7126L20 22.1942L11.2733 16.6409L5 21.3726ZM14.1108 6.0459L5 11.9176L11.2733 16.6409L20 11.0951L14.1108 6.0459ZM20 22.1942L26.0075 26.7126L35 21.3726L29.1883 16.4434L20 22.1942Z" fill="#1E88E5"/>
<path d="M26.8293 28.1493L25.8727 28.7184L24.9827 28.0484L20.0002 24.3018L15.1293 28.0384L14.2427 28.7201L13.2777 28.1543L10.8335 26.7218V28.9484L19.9902 35.0001L29.1668 28.9951V26.7618L26.8293 28.1493Z" fill="#1E88E5"/>
</svg>
