<svg width="34" height="34" viewBox="0 0 34 34" fill="none" xmlns="http://www.w3.org/2000/svg">
<path d="M27.0273 34H6.97266C3.12793 34 0 30.8721 0 27.0273V6.97266C0 3.12793 3.12793 0 6.97266 0H27.0273C30.8721 0 34 3.12793 34 6.97266V27.0273C34 30.8721 30.8721 34 27.0273 34Z" fill="#FDA70D"/>
<path d="M27.0273 0H17V34H27.0273C30.8721 34 34 30.8721 34 27.0273V6.97266C34 3.12793 30.8721 0 27.0273 0Z" fill="#FD9C0C"/>
<path d="M7.03906 23.2429V9.96167C8.19991 8.96777 9.70746 8.36719 11.3555 8.36719C13.1658 8.36719 14.8061 9.09221 16.0039 10.2669V23.5487C14.8062 22.3737 13.1659 21.6484 11.3555 21.6484C9.70746 21.6484 8.19991 22.249 7.03906 23.2429Z" fill="white"/>
<path d="M26.9609 23.2429C25.8001 22.249 24.2925 21.6484 22.6445 21.6484C20.8341 21.6484 19.1938 22.3737 17.9961 23.5487V10.2669C19.1939 9.09221 20.8342 8.36719 22.6445 8.36719C24.2925 8.36719 25.8001 8.96777 26.9609 9.96167V23.2429Z" fill="#F2F2F2"/>
</svg>
