<svg width="50" height="40" viewBox="0 0 50 40" fill="none" xmlns="http://www.w3.org/2000/svg">
<g clip-path="url(#clip0)">
<path d="M32.8044 12.7084C31.2973 11.7149 29.5956 11.0453 27.8094 10.7431C26.0233 10.4408 24.1927 10.5126 22.4365 10.9538C20.7574 11.4471 19.2138 12.3104 17.9221 13.4785C16.6304 14.6466 15.6244 16.0891 14.9799 17.697C14.0894 19.7903 13.7944 22.0838 14.1268 24.3304C14.2248 24.9714 14.3793 25.6028 14.5887 26.2173C15.0804 27.5862 15.7792 28.8738 16.6614 30.0362C18.2728 32.1976 20.3209 34.0055 22.6764 35.3457C25.435 36.8907 28.5019 37.6127 31.2999 36.8293C34.0979 36.0451 36.1776 33.8832 37.4864 31.1985C38.5975 28.869 39.1596 26.3214 39.1304 23.7469C39.1279 22.3174 38.8988 20.8972 38.4516 19.5376C38.2387 18.9183 37.9719 18.3184 37.6544 17.7445C36.493 15.6895 34.8248 13.9573 32.8044 12.7084Z" fill="url(#paint0_linear)"/>
<path d="M32.388 40.0001L28.417 36.6751L33.5831 35.2285L32.388 40.0001Z" fill="black"/>
<path d="M32.8039 12.7084C31.2969 11.7149 29.5951 11.0453 27.809 10.7431C26.0228 10.4408 24.1923 10.5126 22.436 10.9538C20.757 11.4471 19.2134 12.3104 17.9217 13.4785C16.63 14.6466 15.6239 16.0891 14.9795 17.697C17.7284 16.2916 20.6147 15.1652 23.5941 14.3353C26.6017 13.4924 29.6868 12.9474 32.8039 12.7084Z" fill="black"/>
<path d="M14.127 24.33C14.2249 24.9711 14.3794 25.6025 14.5888 26.217C15.0805 27.5859 15.7793 28.8734 16.6615 30.0359C19.9426 27.899 23.549 26.294 27.344 25.282C31.1687 24.1716 35.1449 23.6536 39.1305 23.7465C39.128 22.3171 38.8989 20.8968 38.4517 19.5372C38.2388 18.918 37.972 18.3181 37.6545 17.7441C33.4996 17.8031 29.3714 18.4093 25.3791 19.5467C21.4245 20.6261 17.6386 22.2355 14.127 24.33Z" fill="black"/>
<path d="M22.6768 35.3455C25.4354 36.8905 28.5023 37.6125 31.3003 36.8291C34.0983 36.0449 36.178 33.883 37.4868 31.1982C34.8798 31.2878 32.2943 31.6984 29.7904 32.4205C27.302 33.0906 24.9112 34.0736 22.6768 35.3455Z" fill="black"/>
<path opacity="0.86" d="M10.8767 16.2563C4.08599 18.1565 1.52029 22.2345 0.864855 26.3601C0.259186 30.1733 8.65254 31.4832 15.4418 29.5813C22.2319 27.6813 25.4551 19.4774 25.4551 19.4774C25.4551 19.4774 17.6667 14.3557 10.8767 16.2563Z" fill="url(#paint1_radial)"/>
<path opacity="0.86" d="M39.9573 22.7682C46.748 20.8679 49.3137 16.79 49.9691 12.6643C50.5748 8.85116 42.1814 7.54122 35.3922 9.44313C28.6021 11.3431 25.3789 19.547 25.3789 19.547C25.3789 19.547 33.1673 24.6687 39.9573 22.7682Z" fill="url(#paint2_radial)"/>
<path d="M19.367 7.67493C18.3763 6.5216 16.4508 4.50977 14.6919 3.98733C14.2438 3.84483 13.7631 3.83605 13.3099 3.9621C13.2255 3.87224 13.1174 3.80737 12.9977 3.77476C12.878 3.74215 12.7515 3.74309 12.6323 3.77747C12.5557 3.79513 12.4837 3.82811 12.4205 3.87438C12.3574 3.92064 12.3046 3.9792 12.2653 4.04644C12.226 4.11368 12.2011 4.18816 12.1922 4.26527C12.1833 4.34238 12.1905 4.42049 12.2133 4.49474C12.2732 4.6451 12.3883 4.76757 12.5358 4.83762C12.6833 4.90767 12.8521 4.92011 13.0085 4.87245C13.0848 4.85458 13.1567 4.82144 13.2196 4.77509C13.2825 4.72873 13.3351 4.67014 13.3742 4.60293C13.4132 4.53572 13.4379 4.46132 13.4467 4.38432C13.4555 4.30732 13.4482 4.22936 13.4253 4.15525C13.4177 4.1342 13.4089 4.11358 13.3991 4.09348C13.8073 3.98021 14.2408 3.99294 14.6415 4.12996C17.5045 4.97993 21.5663 10.3559 21.8885 11.845L22.0516 11.816C21.8829 11.0397 20.7304 9.25985 19.367 7.67493Z" fill="black"/>
<path d="M22.9167 6.6812C23.0142 5.22388 23.344 2.58108 24.4689 1.25171C24.7501 0.891742 25.1458 0.635533 25.5923 0.524241C25.6065 0.406563 25.6565 0.295897 25.7357 0.206879C25.815 0.117861 25.9198 0.0546835 26.0362 0.0257011C26.1923 -0.0221257 26.361 -0.00969834 26.5081 0.0604737C26.6553 0.130646 26.7701 0.253334 26.8292 0.403763C26.8523 0.477898 26.8598 0.555947 26.851 0.633048C26.8423 0.710148 26.8176 0.784646 26.7784 0.851903C26.7392 0.919161 26.6865 0.977738 26.6233 1.02398C26.5602 1.07022 26.4882 1.10314 26.4116 1.12068C26.2555 1.16829 26.087 1.15571 25.94 1.08548C25.7929 1.01525 25.6783 0.892605 25.6193 0.74227C25.6116 0.721289 25.6055 0.699716 25.6013 0.677769C25.2037 0.786984 24.8526 1.02015 24.6002 1.34249C22.768 3.50646 22.7784 10.0176 23.4435 11.4088L23.2935 11.4689C22.945 10.7424 22.7832 8.68485 22.9167 6.6812Z" fill="black"/>
<path d="M22.109 11.5551C22.2116 11.8598 22.2496 12.1821 22.2204 12.5019C22.1911 12.8217 22.0954 13.1322 21.9392 13.4138C21.7829 13.6955 21.5695 13.9423 21.3123 14.1388C21.055 14.3354 20.7595 14.4775 20.4441 14.5562C19.8003 14.7645 19.1006 14.7253 18.4849 14.4463C17.8692 14.1672 17.383 13.669 17.1234 13.0513C17.0209 12.7466 16.9832 12.4242 17.0126 12.1044C17.042 11.7846 17.1378 11.4742 17.2942 11.1925C17.4506 10.9109 17.664 10.6642 17.9213 10.4676C18.1786 10.2711 18.4742 10.1291 18.7896 10.0503C19.4332 9.84169 20.1328 9.88082 20.7484 10.1599C21.364 10.4389 21.8499 10.9373 22.109 11.5551Z" fill="white"/>
<path d="M29.4472 9.53034C29.5498 9.83503 29.5877 10.1573 29.5585 10.4771C29.5293 10.7969 29.4335 11.1073 29.2773 11.389C29.1211 11.6706 28.9077 11.9174 28.6504 12.114C28.3932 12.3105 28.0977 12.4526 27.7823 12.5314C27.1388 12.7402 26.4391 12.7011 25.8235 12.422C25.2079 12.143 24.722 11.6445 24.4631 11.0266C24.3603 10.722 24.3222 10.3997 24.3513 10.0799C24.3804 9.76011 24.476 9.44967 24.6322 9.16803C24.7884 8.88638 25.0018 8.63957 25.259 8.44305C25.5162 8.24652 25.8118 8.10449 26.1272 8.02585C26.7708 7.81729 27.4705 7.85642 28.0861 8.1354C28.7017 8.41438 29.1879 8.91262 29.4472 9.53034Z" fill="white"/>
<path d="M27.6745 10.1999C27.7052 10.2907 27.7166 10.3869 27.7079 10.4822C27.6993 10.5776 27.6707 10.6702 27.6241 10.7542C27.5775 10.8382 27.5138 10.9118 27.4371 10.9703C27.3603 11.0289 27.2721 11.0712 27.1781 11.0945C26.9863 11.1568 26.7777 11.1452 26.5942 11.0621C26.4107 10.9789 26.2659 10.8303 26.1887 10.6462C26.1579 10.5554 26.1465 10.4593 26.1551 10.364C26.1637 10.2686 26.1922 10.1761 26.2387 10.0921C26.2853 10.0081 26.3489 9.93449 26.4256 9.87589C26.5023 9.8173 26.5904 9.77496 26.6844 9.75154C26.8763 9.68919 27.085 9.70075 27.2686 9.7839C27.4522 9.86706 27.5972 10.0157 27.6745 10.1999Z" fill="black"/>
<path d="M20.3598 12.1433C20.3905 12.2342 20.4018 12.3303 20.3931 12.4257C20.3844 12.5211 20.3558 12.6137 20.3091 12.6977C20.2624 12.7816 20.1987 12.8552 20.1219 12.9137C20.045 12.9722 19.9568 13.0144 19.8627 13.0377C19.671 13.0999 19.4625 13.0882 19.2792 13.0051C19.0958 12.9219 18.9511 12.7734 18.874 12.5893C18.8434 12.4985 18.832 12.4025 18.8407 12.3072C18.8494 12.2119 18.8779 12.1194 18.9244 12.0355C18.9709 11.9516 19.0345 11.878 19.1111 11.8194C19.1877 11.7608 19.2758 11.7184 19.3697 11.6949C19.5616 11.6325 19.7703 11.6441 19.9539 11.7272C20.1376 11.8104 20.2826 11.959 20.3598 12.1433Z" fill="black"/>
</g>
<defs>
<linearGradient id="paint0_linear" x1="5.83354" y1="18.7501" x2="39.1827" y2="24.4914" gradientUnits="userSpaceOnUse">
<stop stop-color="#F8ED32"/>
<stop offset="0.31137" stop-color="#F8EB31"/>
<stop offset="0.47614" stop-color="#F8E32C"/>
<stop offset="0.60656" stop-color="#F8D525"/>
<stop offset="0.71833" stop-color="#F9C21A"/>
<stop offset="0.75151" stop-color="#F9BB16"/>
<stop offset="1" stop-color="#F68C1F"/>
</linearGradient>
<radialGradient id="paint1_radial" cx="0" cy="0" r="1" gradientUnits="userSpaceOnUse" gradientTransform="translate(-82223.3 -216813) rotate(-108.917) scale(341.915 250.942)">
<stop stop-color="#FFF5AB"/>
<stop offset="0.47778" stop-color="#FFFFFD"/>
<stop offset="0.66419" stop-color="#FFFEF6"/>
<stop offset="0.79969" stop-color="#FFFDEA"/>
<stop offset="0.90979" stop-color="#FFFAD9"/>
<stop offset="1" stop-color="#FFF5AB"/>
</radialGradient>
<radialGradient id="paint2_radial" cx="0" cy="0" r="1" gradientUnits="userSpaceOnUse" gradientTransform="translate(82274.1 216852) rotate(71.0833) scale(341.915 250.942)">
<stop stop-color="#FFF5AB"/>
<stop offset="0.47778" stop-color="#FFFFFD"/>
<stop offset="0.66419" stop-color="#FFFEF6"/>
<stop offset="0.79969" stop-color="#FFFDEA"/>
<stop offset="0.90979" stop-color="#FFFAD9"/>
<stop offset="1" stop-color="#FFF5AB"/>
</radialGradient>
<clipPath id="clip0">
<rect width="50" height="40" fill="white"/>
</clipPath>
</defs>
</svg>
