<svg width="34" height="34" viewBox="0 0 34 34" fill="none" xmlns="http://www.w3.org/2000/svg">
<path d="M31.9115 0H2.08849C0.934628 0 0 0.934668 0 2.08858V31.9129C0 33.0668 0.934628 34 2.08849 34H31.9115C33.0654 34 34 33.0668 34 31.9129V2.08858C34 0.934668 33.0654 0 31.9115 0ZM22.4527 5.36893C21.9176 5.31268 21.3205 5.39634 20.6642 5.61847C20.0065 5.84059 19.6171 6.16369 19.4974 6.58919C19.3777 7.01326 19.3171 8.02149 19.3171 9.611V24.1957C19.3171 25.8963 19.3863 26.9363 19.5262 27.3156C19.6661 27.695 19.933 28.008 20.3311 28.2575C20.7291 28.507 21.4359 28.6325 22.4542 28.6325V29.0494H11.5487V28.6325C12.9175 28.6325 13.7699 28.3685 14.1016 27.8421C14.4348 27.317 14.6021 26.1184 14.6021 24.252V9.9716C14.6021 8.03014 14.4175 6.7594 14.0468 6.15936C13.6776 5.55789 12.8439 5.29537 11.5502 5.36893V4.95208H22.4556V5.36893H22.4527Z" fill="black"/>
</svg>
