<svg width="24" height="24" viewBox="0 0 24 24" fill="none" xmlns="http://www.w3.org/2000/svg">
<path d="M14.5 14.5H15.7929L21.2324 19.9396C21.5892 20.2963 21.5892 20.8757 21.2324 21.2324C20.8757 21.5892 20.2963 21.5892 19.9396 21.2324L14.5 15.7929V14.5Z" fill="black" stroke="black"/>
<path d="M9 3C7.4087 3 5.88258 3.63214 4.75736 4.75736C3.63214 5.88258 3 7.4087 3 9C3 10.5913 3.63214 12.1174 4.75736 13.2426C5.88258 14.3679 7.4087 15 9 15C10.5913 15 12.1174 14.3679 13.2426 13.2426C14.3679 12.1174 15 10.5913 15 9C15 7.4087 14.3679 5.88258 13.2426 4.75736C12.1174 3.63214 10.5913 3 9 3V3Z" stroke="black" stroke-width="2" stroke-miterlimit="10"/>
<path d="M13 13L15.5 15.5L13 13Z" fill="black"/>
<path d="M13 13L15.5 15.5" stroke="black" stroke-miterlimit="10"/>
</svg>
