<svg width="88" height="88" viewBox="0 0 88 88" fill="none" xmlns="http://www.w3.org/2000/svg">
<path d="M69.6534 69.6534L69.6542 69.6525C83.7358 55.5012 83.7358 32.4984 69.6542 18.3471L69.6516 18.3445C62.5428 11.3054 53.2715 7.7498 43.9998 7.7498C34.7281 7.7498 25.4568 11.3054 18.348 18.3445L18.3454 18.3471C4.26364 32.4986 4.26363 55.502 18.415 69.6534C32.4985 83.8056 55.5026 83.8041 69.6534 69.6534ZM16.1659 16.1659C31.5081 0.823621 56.4915 0.823621 71.8337 16.1659C87.176 31.5081 87.176 56.4915 71.8337 71.8337C64.1623 79.5052 54.0473 83.3748 43.9998 83.3748C33.9523 83.3748 23.8373 79.5052 16.1659 71.8337C0.823621 56.4915 0.823621 31.5081 16.1659 16.1659Z" fill="#FFD504" stroke="#FFF7EB"/>
<path d="M45.5625 41.9375V42.4375H46.0625H57.0625C57.9551 42.4375 58.625 43.1074 58.625 44C58.625 44.8926 57.9551 45.5625 57.0625 45.5625H46.0625H45.5625V46.0625V57.0625C45.5625 57.9551 44.8926 58.625 44 58.625C43.1074 58.625 42.4375 57.9551 42.4375 57.0625V46.0625V45.5625H41.9375H30.9375C30.0449 45.5625 29.375 44.8926 29.375 44C29.375 43.1074 30.0449 42.4375 30.9375 42.4375H41.9375H42.4375V41.9375V30.9375C42.4375 30.0449 43.1074 29.375 44 29.375C44.8926 29.375 45.5625 30.0449 45.5625 30.9375V41.9375Z" fill="#FFD504" stroke="#FFF7EB"/>
</svg>
