<svg width="40" height="14" viewBox="0 0 40 14" fill="none" xmlns="http://www.w3.org/2000/svg">
<path d="M5.61193 13.8044L1.81112 9.18353H1.7712V13.8046H0V0H1.77098V7.79898H1.8109L5.1144 4.58198H7.3035L3.26379 8.40356L7.78129 13.8044H5.61193ZM9.56247 0.87754C9.79427 1.09834 9.91072 1.36499 9.91072 1.67684C9.91072 1.9887 9.79449 2.25861 9.56247 2.48593C9.33023 2.71346 9.05495 2.82734 8.73643 2.82734C8.40459 2.82734 8.12621 2.71694 7.90063 2.49571C7.6746 2.27469 7.56236 2.00196 7.56236 1.67684C7.56236 1.37803 7.67482 1.11507 7.90063 0.887319C8.12621 0.660219 8.40437 0.545909 8.73643 0.545909C9.05495 0.545909 9.33023 0.656525 9.56247 0.87754ZM7.8607 13.8044V4.58198H9.6319V13.8046H7.8607V13.8044ZM17.1543 13.8044V8.20841C17.1544 7.93783 17.1377 7.6675 17.1044 7.39889C17.0716 7.13267 17.0022 6.88906 16.8964 6.66783C16.7939 6.45089 16.6329 6.2655 16.4308 6.1317C16.226 5.99544 15.9521 5.92698 15.6089 5.92698C15.0939 5.92698 14.6019 6.06367 14.1332 6.33663C13.6643 6.60958 13.2451 6.9021 12.8755 7.21417V13.8042H11.1043V4.58198H12.5945L12.8161 5.63468C13.358 5.24503 13.8837 4.93274 14.3927 4.69869C14.9018 4.46463 15.4869 4.34793 16.1484 4.34793C16.4922 4.34793 16.8294 4.40639 17.1599 4.52352C17.4904 4.64044 17.7881 4.83234 18.0527 5.09855C18.3169 5.36521 18.5287 5.70618 18.6873 6.12213C18.8459 6.53852 18.9253 7.03857 18.9253 7.62338V13.804H17.1541V13.8044H17.1543ZM26.448 13.7946C25.9038 13.9309 25.2739 13.9991 24.5576 13.9991C23.8811 13.9991 23.2443 13.9016 22.6471 13.7064C22.0505 13.5117 21.5292 13.2189 21.0849 12.8293C20.6404 12.439 20.2855 11.9518 20.0202 11.3669C19.7547 10.7819 19.6222 10.093 19.6222 9.29979C19.6222 8.58503 19.748 7.92546 20.0004 7.32109C20.2522 6.71694 20.604 6.19363 21.0552 5.75182C21.5061 5.31001 22.0334 4.96512 22.6372 4.71803C23.2407 4.47137 23.8942 4.34771 24.5973 4.34771C24.9023 4.34771 25.1676 4.36097 25.3934 4.38661C25.6193 4.41291 25.8244 4.44507 26.0103 4.48441V0H27.7815V13.317C27.4361 13.4991 26.9921 13.6582 26.448 13.7946ZM26.0101 5.98631C25.8242 5.92111 25.6386 5.87243 25.4529 5.83983C25.267 5.80724 25.0082 5.79072 24.6768 5.79072C24.2256 5.79072 23.801 5.86896 23.4031 6.02521C23.0114 6.17775 22.6558 6.40741 22.3583 6.69999C22.06 6.99315 21.8242 7.35195 21.6516 7.77551C21.4791 8.19907 21.3928 8.67174 21.3928 9.19265C21.3928 10.1706 21.678 10.9753 22.2485 11.6075C22.8188 12.2399 23.6679 12.5561 24.7959 12.5561C25.0194 12.5562 25.2425 12.5365 25.4624 12.4972C25.6811 12.4579 25.8637 12.4055 26.0096 12.3403L26.0101 5.98631ZM31.5027 13.9211C31.2678 13.9742 31.0275 14.0004 30.7864 13.9991C30.1294 13.9991 29.6598 13.8266 29.3779 13.4821C29.096 13.1381 28.9556 12.7059 28.9556 12.1856V0H30.7266V11.4256C30.7266 11.8285 30.7829 12.0984 30.896 12.2349C31.0085 12.3716 31.1973 12.4394 31.463 12.4394C31.5293 12.4394 31.6056 12.4364 31.6919 12.4299C31.778 12.4236 31.8875 12.4003 32.02 12.3618L32.2387 13.6293C31.9736 13.7718 31.7283 13.8692 31.5027 13.9211ZM33.9702 9.57318C33.9702 9.98957 34.0365 10.3762 34.1691 10.7337C34.2965 11.0829 34.4926 11.4042 34.7463 11.6795C34.9983 11.9524 35.3066 12.1667 35.6717 12.3229C36.0368 12.4788 36.4578 12.557 36.9354 12.557C37.3466 12.557 37.7515 12.4953 38.1494 12.3714C38.5478 12.2482 38.9056 12.0956 39.2243 11.9135L39.7218 13.0573C39.3106 13.3519 38.8264 13.5834 38.269 13.7499C37.7115 13.9168 37.1548 14 36.5971 14C35.8274 14 35.1609 13.8653 34.597 13.5962C34.0329 13.3267 33.5687 12.9664 33.204 12.514C32.8389 12.0622 32.5672 11.5406 32.388 10.9488C32.209 10.3577 32.1193 9.73726 32.1193 9.08704C32.1193 8.42443 32.2121 7.8068 32.3979 7.23503C32.5836 6.66304 32.8522 6.16234 33.204 5.73378C33.5554 5.30479 33.9766 4.97012 34.4677 4.72976C34.9584 4.48897 35.5025 4.36879 36.0994 4.36879C36.7096 4.36879 37.2568 4.48245 37.7408 4.70977C38.222 4.93487 38.6441 5.26503 38.9748 5.67489C39.313 6.09127 39.5686 6.59133 39.7411 7.17657C39.913 7.76116 40 8.41117 40 9.12615V9.57427H33.9697V9.57318H33.9702ZM38.0003 7.32131C37.9136 7.02901 37.7878 6.76584 37.6219 6.53178C37.456 6.29773 37.2437 6.10953 36.9851 5.96632C36.7264 5.8231 36.4248 5.75182 36.0796 5.75182C35.7482 5.75182 35.453 5.81702 35.1944 5.94676C34.9356 6.07668 34.7083 6.2595 34.5278 6.48289C34.3415 6.71042 34.1995 6.9736 34.0995 7.27263C33.9994 7.5749 33.949 7.89085 33.9502 8.20863H38.1297C38.1293 7.90837 38.0858 7.60966 38.0003 7.32131Z" fill="black"/>
</svg>
