<svg width="42" height="22" viewBox="0 0 42 22" fill="none" xmlns="http://www.w3.org/2000/svg">
<path d="M5.21729 0V13.5709H7.47816V8.85058L10.8695 13.5709H13.5651L9.73903 8.26054L13.3043 4.21456H10.6086L7.47816 7.75479V0H5.21729Z" fill="black"/>
<path d="M17.652 12.2225C19.3042 12.2225 19.4781 10.6209 19.4781 8.8508C19.4781 7.08069 19.2172 5.47916 17.652 5.47916C15.9998 5.47916 15.8259 7.08069 15.8259 8.8508C15.8259 10.6209 15.9998 12.2225 17.652 12.2225ZM13.3911 8.8508C13.3911 5.81632 14.8694 3.96191 17.652 3.96191C20.4346 3.96191 21.9129 5.81632 21.9129 8.8508C21.9129 11.8853 20.4346 13.7397 17.652 13.7397C14.8694 13.7397 13.3911 11.9696 13.3911 8.8508Z" fill="black"/>
<path d="M27.1304 12.2222C28.6086 12.2222 28.7826 10.3678 28.7826 8.85058C28.7826 7.16475 28.6086 5.39464 27.1304 5.39464C25.7391 5.39464 25.3912 7.33333 25.3912 8.85058C25.3912 11.2107 25.7391 12.2222 27.1304 12.2222ZM25.3912 5.31035C25.7391 4.8046 26.4347 3.96169 27.913 3.96169C30.2608 3.96169 31.2173 5.90038 31.2173 8.85058C31.2173 11.4636 30.2608 13.7395 27.1304 13.7395C24.6086 13.7395 23.1304 12.3065 23.1304 9.52491V0H25.3912V5.31035Z" fill="black"/>
<path d="M36.609 12.2225C38.2612 12.2225 38.4351 10.6209 38.4351 8.8508C38.4351 7.08069 38.1742 5.47916 36.609 5.47916C34.9568 5.47916 34.7829 7.08069 34.7829 8.8508C34.696 10.6209 34.9568 12.2225 36.609 12.2225ZM32.3481 8.8508C32.3481 5.81632 33.8264 3.96191 36.609 3.96191C39.3916 3.96191 40.8699 5.81632 40.8699 8.8508C40.8699 11.8853 39.3916 13.7397 36.609 13.7397C33.8264 13.7397 32.3481 11.9696 32.3481 8.8508Z" fill="black"/>
<path d="M32.4348 16.7741C29.8261 16.7741 28.0001 16.8583 27.0435 16.9426C26.087 17.1112 25.2174 17.3641 24.4348 17.7855C23.4783 18.2913 22.8696 19.0499 22.6087 19.8928H22.3479C22.174 19.1342 21.6522 18.4599 20.7826 17.9541C20.087 17.5327 19.3044 17.2798 18.3479 17.0269C17.3913 16.8583 16.1739 16.7741 14.6957 16.7741H11.2174H6.60871C5.65218 16.7741 4.86957 16.7741 4.08696 16.7741L0 19.0499C1.04348 19.1342 2.17392 19.2185 3.47827 19.2185H7.13045L12.6087 19.1342L16.6087 19.0499C18.3479 19.0499 19.6522 19.3028 20.5218 19.7242C21.3913 20.1457 21.9131 20.9043 22.087 22.0001H22.7827C22.9566 21.2415 23.3044 20.6514 23.7392 20.1457C24.174 19.7242 24.6957 19.4714 25.3914 19.2185C26.087 19.0499 27.0435 18.9656 28.2609 18.9656H31.6522H34.174V16.6055L32.4348 16.7741Z" fill="#09C7E8"/>
<path d="M38.1741 16.7744H35.7393V19.1346H38.1741V16.7744Z" fill="#09C7E8"/>
<path d="M42.0002 16.7744H39.5654V19.1346H42.0002V16.7744Z" fill="#09C7E8"/>
</svg>
